<?xml version="1.0" standalone="no"?><svg xmlns="http://www.w3.org/2000/svg" viewBox="0 0 1440 320"><path fill="#fef3c7" fill-opacity="1" d="M0,128L20,128C40,128,80,128,120,149.3C160,171,200,213,240,245.3C280,277,320,299,360,261.3C400,224,440,128,480,122.7C520,117,560,203,600,208C640,213,680,139,720,117.3C760,96,800,128,840,149.3C880,171,920,181,960,170.7C1000,160,1040,128,1080,106.7C1120,85,1160,75,1200,90.7C1240,107,1280,149,1320,181.3C1360,213,1400,235,1420,245.3L1440,256L1440,0L1420,0C1400,0,1360,0,1320,0C1280,0,1240,0,1200,0C1160,0,1120,0,1080,0C1040,0,1000,0,960,0C920,0,880,0,840,0C800,0,760,0,720,0C680,0,640,0,600,0C560,0,520,0,480,0C440,0,400,0,360,0C320,0,280,0,240,0C200,0,160,0,120,0C80,0,40,0,20,0L0,0Z"></path></svg>