<?xml version="1.0" standalone="no"?><svg xmlns="http://www.w3.org/2000/svg" viewBox="0 0 1440 320"><path fill="#fef3c7" fill-opacity="1" d="M0,160L6.7,186.7C13.3,213,27,267,40,293.3C53.3,320,67,320,80,282.7C93.3,245,107,171,120,138.7C133.3,107,147,117,160,144C173.3,171,187,213,200,229.3C213.3,245,227,235,240,202.7C253.3,171,267,117,280,112C293.3,107,307,149,320,176C333.3,203,347,213,360,213.3C373.3,213,387,203,400,208C413.3,213,427,235,440,224C453.3,213,467,171,480,133.3C493.3,96,507,64,520,96C533.3,128,547,224,560,266.7C573.3,309,587,299,600,266.7C613.3,235,627,181,640,144C653.3,107,667,85,680,101.3C693.3,117,707,171,720,165.3C733.3,160,747,96,760,101.3C773.3,107,787,181,800,208C813.3,235,827,213,840,224C853.3,235,867,277,880,250.7C893.3,224,907,128,920,106.7C933.3,85,947,139,960,181.3C973.3,224,987,256,1000,277.3C1013.3,299,1027,309,1040,266.7C1053.3,224,1067,128,1080,90.7C1093.3,53,1107,75,1120,85.3C1133.3,96,1147,96,1160,117.3C1173.3,139,1187,181,1200,170.7C1213.3,160,1227,96,1240,96C1253.3,96,1267,160,1280,160C1293.3,160,1307,96,1320,80C1333.3,64,1347,96,1360,117.3C1373.3,139,1387,149,1400,154.7C1413.3,160,1427,160,1433,160L1440,160L1440,0L1433.3,0C1426.7,0,1413,0,1400,0C1386.7,0,1373,0,1360,0C1346.7,0,1333,0,1320,0C1306.7,0,1293,0,1280,0C1266.7,0,1253,0,1240,0C1226.7,0,1213,0,1200,0C1186.7,0,1173,0,1160,0C1146.7,0,1133,0,1120,0C1106.7,0,1093,0,1080,0C1066.7,0,1053,0,1040,0C1026.7,0,1013,0,1000,0C986.7,0,973,0,960,0C946.7,0,933,0,920,0C906.7,0,893,0,880,0C866.7,0,853,0,840,0C826.7,0,813,0,800,0C786.7,0,773,0,760,0C746.7,0,733,0,720,0C706.7,0,693,0,680,0C666.7,0,653,0,640,0C626.7,0,613,0,600,0C586.7,0,573,0,560,0C546.7,0,533,0,520,0C506.7,0,493,0,480,0C466.7,0,453,0,440,0C426.7,0,413,0,400,0C386.7,0,373,0,360,0C346.7,0,333,0,320,0C306.7,0,293,0,280,0C266.7,0,253,0,240,0C226.7,0,213,0,200,0C186.7,0,173,0,160,0C146.7,0,133,0,120,0C106.7,0,93,0,80,0C66.7,0,53,0,40,0C26.7,0,13,0,7,0L0,0Z"></path></svg>